{
  "source": "C:\\Users\\Peter\\Desktop\\stuff\\MIUN\\quantitative_research\\video_compression\\videos\\BVI-HD\\BVI-HD_CDVL_videos\\ORIG\\MartialArts_1920x1080_60fps.mp4",
  "output": "C:\\Users\\Peter\\Desktop\\stuff\\MIUN\\quantitative_research\\video_compression\\compressed_videos\\BVI-HD\\av1\\4\\MartialArts_1920x1080_60fps_av1.mkv",
  "codec": "av1",
  "ok": "Input #0, mov,mp4,m4a,3gp,3g2,mj2, from 'C:\\Users\\Peter\\Desktop\\stuff\\MIUN\\quantitative_research\\video_compression\\videos\\BVI-HD\\BVI-HD_CDVL_videos\\ORIG\\MartialArts_1920x1080_60fps.mp4':\n  Metadata:\n    major_brand     : isom\n    minor_version   : 512\n    compatible_brands: isomiso2avc1mp41\n    encoder         : Lavf54.28.101\n  Duration: 00:00:05.00, start: 0.000000, bitrate: 120609 kb/s\n  Stream #0:0[0x1](und): Video: h264 (High 4:4:4 Predictive) (avc1 / 0x31637661), yuv420p(progressive), 1920x1080, 120605 kb/s, 60 fps, 60 tbr, 60 tbn (default)\n    Metadata:\n      handler_name    : VideoHandler\n      vendor_id       : [0][0][0][0]\n[out#0/matroska @ 000001eb480397c0] Codec AVOption b:a (set bitrate (in bits/s)) has not been used for any stream. The most likely reason is either wrong type (e.g. a video option with no video streams) or that it is a private option of some decoder which was not actually used for any stream.\nStream mapping:\n  Stream #0:0 -> #0:0 (h264 (native) -> av1 (libsvtav1))\nPress [q] to stop, [?] for help\nSvt[info]: -------------------------------------------\nSvt[info]: SVT [version]:\tSVT-AV1 Encoder Lib v3.1.0-19-g6ecfe8ec\nSvt[info]: SVT [build]  :\tGCC 15.2.0\t 64 bit\nSvt[info]: LIB Build date: Aug 17 2025 11:37:13\nSvt[info]: -------------------------------------------\nSvt[info]: Level of Parallelism: 5\nSvt[info]: Number of PPCS 93\nSvt[info]: [asm level on system : up to avx2]\nSvt[info]: [asm level selected : up to avx2]\nSvt[info]: -------------------------------------------\nSvt[info]: SVT [config]: main profile\ttier (auto)\tlevel (auto)\nSvt[info]: SVT [config]: width / height / fps numerator / fps denominator \t\t: 1920 / 1080 / 60 / 1\nSvt[info]: SVT [config]: bit-depth / color format \t\t\t\t\t: 8 / YUV420\nSvt[info]: SVT [config]: preset / tune / pred struct \t\t\t\t\t: 4 / PSNR / random access\nSvt[info]: SVT [config]: gop size / mini-gop size / key-frame type \t\t\t: 321 / 16 / key frame\nSvt[info]: SVT [config]: BRC mode / target bitrate (kbps)\t\t\t\t: VBR / 4000 \nSvt[info]: SVT [config]: AQ mode / Variance Boost \t\t\t\t\t: 2 / 0\nSvt[info]: SVT [config]: sharpness / luminance-based QP bias \t\t\t\t: 0 / 0\nSvt[info]: SVT [config]: QP scale compress strength \t\t\t\t\t: 0\nSvt[info]: -------------------------------------------\nOutput #0, matroska, to 'C:\\Users\\Peter\\Desktop\\stuff\\MIUN\\quantitative_research\\video_compression\\compressed_videos\\BVI-HD\\av1\\4\\MartialArts_1920x1080_60fps_av1.mkv':\n  Metadata:\n    major_brand     : isom\n    minor_version   : 512\n    compatible_brands: isomiso2avc1mp41\n    encoder         : Lavf62.3.100\n  Stream #0:0(und): Video: av1 (AV01 / 0x31305641), yuv420p(tv, progressive), 1920x1080, q=2-31, 4000 kb/s, 60 fps, 1k tbn (default)\n    Metadata:\n      encoder         : Lavc62.11.100 libsvtav1\n      handler_name    : VideoHandler\n      vendor_id       : [0][0][0][0]\n    Side data:\n      cpb: bitrate max/min/avg: 0/0/4000000 buffer size: 4000000 vbv_delay: N/A\nframe=    0 fps=0.0 q=0.0 size=       0KiB time=N/A bitrate=N/A speed=N/A elapsed=0:00:01.06    \nframe=    0 fps=0.0 q=0.0 size=       0KiB time=N/A bitrate=N/A speed=N/A elapsed=0:00:01.71    \nframe=    0 fps=0.0 q=0.0 size=       0KiB time=N/A bitrate=N/A speed=N/A elapsed=0:00:02.28    \nframe=    0 fps=0.0 q=0.0 size=       0KiB time=N/A bitrate=N/A speed=N/A elapsed=0:00:02.83    \nframe=    0 fps=0.0 q=0.0 size=       0KiB time=N/A bitrate=N/A speed=N/A elapsed=0:00:03.37    \nframe=    0 fps=0.0 q=0.0 size=       0KiB time=N/A bitrate=N/A speed=N/A elapsed=0:00:03.93    \nframe=    1 fps=0.2 q=4.0 size=       1KiB time=00:00:00.00 bitrate=N/A speed=   0x elapsed=0:00:04.45    \nframe=    1 fps=0.2 q=4.0 size=       1KiB time=00:00:00.00 bitrate=N/A speed=   0x elapsed=0:00:05.01    \nframe=    1 fps=0.2 q=4.0 size=       1KiB time=00:00:00.00 bitrate=N/A speed=   0x elapsed=0:00:05.54    \nframe=    1 fps=0.2 q=4.0 size=       1KiB time=00:00:00.00 bitrate=N/A speed=   0x elapsed=0:00:06.05    \nframe=    2 fps=0.3 q=30.0 size=       1KiB time=00:00:00.01 bitrate= 341.8kbits/s speed=0.00254x elapsed=0:00:06.57    \nframe=    4 fps=0.6 q=30.0 size=       1KiB time=00:00:00.05 bitrate= 113.9kbits/s speed=0.00702x elapsed=0:00:07.12    \nframe=    7 fps=0.9 q=26.0 size=       1KiB time=00:00:00.08 bitrate=  68.4kbits/s speed=0.0109x elapsed=0:00:07.64    \nframe=    8 fps=1.0 q=26.0 size=       1KiB time=00:00:00.11 bitrate=  48.8kbits/s speed=0.0143x elapsed=0:00:08.16    \nframe=   10 fps=1.2 q=25.0 size=       1KiB time=00:00:00.15 bitrate=  38.0kbits/s speed=0.0173x elapsed=0:00:08.69    \nframe=   12 fps=1.3 q=22.0 size=       1KiB time=00:00:00.18 bitrate=  31.1kbits/s speed=0.0199x elapsed=0:00:09.20    \nframe=   15 fps=1.5 q=25.0 size=       1KiB time=00:00:00.23 bitrate=  24.4kbits/s speed=0.0239x elapsed=0:00:09.76    \nframe=   17 fps=1.6 q=11.0 size=       1KiB time=00:00:00.26 bitrate=  21.4kbits/s speed=0.0259x elapsed=0:00:10.30    \nframe=   20 fps=1.8 q=21.0 size=       1KiB time=00:00:00.31 bitrate=  18.0kbits/s speed=0.0292x elapsed=0:00:10.83    \nframe=   22 fps=1.9 q=20.0 size=       1KiB time=00:00:00.35 bitrate=  16.3kbits/s speed=0.0309x elapsed=0:00:11.34    \nframe=   24 fps=2.0 q=20.0 size=       1KiB time=00:00:00.36 bitrate=  15.5kbits/s speed=0.0308x elapsed=0:00:11.91    \nframe=   26 fps=2.1 q=18.0 size=       1KiB time=00:00:00.41 bitrate=  13.7kbits/s speed=0.0332x elapsed=0:00:12.55    \nframe=   27 fps=2.1 q=19.0 size=       1KiB time=00:00:00.43 bitrate=  13.1kbits/s speed=0.033x elapsed=0:00:13.13    \nframe=   28 fps=2.0 q=17.0 size=       1KiB time=00:00:00.45 bitrate=  12.7kbits/s speed=0.0329x elapsed=0:00:13.67    \nframe=   32 fps=2.2 q=17.0 size=       1KiB time=00:00:00.51 bitrate=  11.0kbits/s speed=0.0363x elapsed=0:00:14.24    \nframe=   34 fps=2.3 q=15.0 size=       1KiB time=00:00:00.55 bitrate=  10.4kbits/s speed=0.0371x elapsed=0:00:14.80    \nframe=   35 fps=2.3 q=17.0 size=       1KiB time=00:00:00.56 bitrate=  10.1kbits/s speed=0.0369x elapsed=0:00:15.35    \nframe=   36 fps=2.3 q=14.0 size=       1KiB time=00:00:00.58 bitrate=   9.8kbits/s speed=0.0367x elapsed=0:00:15.88    \nframe=   38 fps=2.3 q=14.0 size=       1KiB time=00:00:00.61 bitrate=   9.2kbits/s speed=0.0376x elapsed=0:00:16.41    \nframe=   39 fps=2.3 q=16.0 size=       1KiB time=00:00:00.63 bitrate=   9.0kbits/s speed=0.0373x elapsed=0:00:16.97    \nframe=   42 fps=2.4 q=15.0 size=       1KiB time=00:00:00.66 bitrate=   8.5kbits/s speed=0.038x elapsed=0:00:17.54    \nframe=   43 fps=2.4 q=19.0 size=       1KiB time=00:00:00.70 bitrate=   8.1kbits/s speed=0.0387x elapsed=0:00:18.07    \nframe=   44 fps=2.4 q=16.0 size=       1KiB time=00:00:00.71 bitrate=   7.9kbits/s speed=0.0384x elapsed=0:00:18.64    \nframe=   47 fps=2.5 q=20.0 size=       1KiB time=00:00:00.76 bitrate=   7.4kbits/s speed=0.04x elapsed=0:00:19.17    \nframe=   48 fps=2.4 q=17.0 size=       1KiB time=00:00:00.78 bitrate=   7.3kbits/s speed=0.0398x elapsed=0:00:19.69    \nframe=   50 fps=2.5 q=16.0 size=       1KiB time=00:00:00.80 bitrate=   7.1kbits/s speed=0.0395x elapsed=0:00:20.25    \nframe=   51 fps=2.5 q=20.0 size=       1KiB time=00:00:00.83 bitrate=   6.8kbits/s speed=0.0401x elapsed=0:00:20.79    \nframe=   52 fps=2.4 q=17.0 size=       1KiB time=00:00:00.85 bitrate=   6.7kbits/s speed=0.0399x elapsed=0:00:21.32    \nframe=   53 fps=2.4 q=21.0 size=       1KiB time=00:00:00.86 bitrate=   6.6kbits/s speed=0.0396x elapsed=0:00:21.91    \nframe=   54 fps=2.4 q=17.0 size=       1KiB time=00:00:00.88 bitrate=   6.4kbits/s speed=0.0393x elapsed=0:00:22.45    \nframe=   55 fps=2.4 q=21.0 size=       1KiB time=00:00:00.90 bitrate=   6.3kbits/s speed=0.0392x elapsed=0:00:22.97    \nframe=   58 fps=2.5 q=18.0 size=       1KiB time=00:00:00.95 bitrate=   6.0kbits/s speed=0.0404x elapsed=0:00:23.52    \nframe=   60 fps=2.5 q=18.0 size=       1KiB time=00:00:00.96 bitrate=   5.9kbits/s speed=0.0401x elapsed=0:00:24.08    \nframe=   61 fps=2.5 q=20.0 size=       1KiB time=00:00:01.00 bitrate=   5.7kbits/s speed=0.0405x elapsed=0:00:24.67    \nframe=   63 fps=2.5 q=23.0 size=       1KiB time=00:00:01.03 bitrate=   5.5kbits/s speed=0.0409x elapsed=0:00:25.25    \nframe=   66 fps=2.6 q=20.0 size=       1KiB time=00:00:01.06 bitrate=   5.3kbits/s speed=0.0412x elapsed=0:00:25.87    \nframe=   67 fps=2.5 q=24.0 size=       1KiB time=00:00:01.10 bitrate=   5.2kbits/s speed=0.0416x elapsed=0:00:26.42    \nframe=   68 fps=2.5 q=19.0 size=       1KiB time=00:00:01.11 bitrate=   5.1kbits/s speed=0.0414x elapsed=0:00:27.00    \nframe=   69 fps=2.5 q=21.0 size=       1KiB time=00:00:01.13 bitrate=   5.0kbits/s speed=0.0411x elapsed=0:00:27.54    \nframe=   70 fps=2.5 q=19.0 size=       1KiB time=00:00:01.15 bitrate=   5.0kbits/s speed=0.041x elapsed=0:00:28.07    \nframe=   71 fps=2.5 q=21.0 size=       1KiB time=00:00:01.16 bitrate=   4.9kbits/s speed=0.0408x elapsed=0:00:28.62    \nframe=   71 fps=2.4 q=21.0 size=       1KiB time=00:00:01.16 bitrate=   4.9kbits/s speed=0.0399x elapsed=0:00:29.21    \nframe=   74 fps=2.5 q=17.0 size=       1KiB time=00:00:01.20 bitrate=   4.7kbits/s speed=0.0403x elapsed=0:00:29.78    \nframe=   75 fps=2.5 q=24.0 size=       1KiB time=00:00:01.23 bitrate=   4.6kbits/s speed=0.0406x elapsed=0:00:30.39    \nframe=   76 fps=2.5 q=16.0 size=       1KiB time=00:00:01.25 bitrate=   4.6kbits/s speed=0.0403x elapsed=0:00:31.00    \nframe=   77 fps=2.4 q=19.0 size=       1KiB time=00:00:01.25 bitrate=   4.6kbits/s speed=0.0395x elapsed=0:00:31.65    \nframe=   80 fps=2.5 q=18.0 size=       1KiB time=00:00:01.30 bitrate=   4.4kbits/s speed=0.0402x elapsed=0:00:32.32    \nframe=   82 fps=2.5 q=18.0 size=       1KiB time=00:00:01.33 bitrate=   4.3kbits/s speed=0.0405x elapsed=0:00:32.88    \nframe=   83 fps=2.5 q=24.0 size=       1KiB time=00:00:01.36 bitrate=   4.2kbits/s speed=0.0408x elapsed=0:00:33.50    \nframe=   85 fps=2.5 q=20.0 size=       1KiB time=00:00:01.40 bitrate=   4.1kbits/s speed=0.0411x elapsed=0:00:34.03    \nframe=   86 fps=2.5 q=18.0 size=       1KiB time=00:00:01.41 bitrate=   4.0kbits/s speed=0.041x elapsed=0:00:34.58    \nframe=   87 fps=2.5 q=20.0 size=       1KiB time=00:00:01.43 bitrate=   4.0kbits/s speed=0.0408x elapsed=0:00:35.10    \nframe=   90 fps=2.5 q=17.0 size=       1KiB time=00:00:01.48 bitrate=   3.8kbits/s speed=0.0416x elapsed=0:00:35.67    \nframe=   91 fps=2.5 q=24.0 size=       1KiB time=00:00:01.50 bitrate=   3.8kbits/s speed=0.0414x elapsed=0:00:36.21    \nframe=   94 fps=2.6 q=17.0 size=       1KiB time=00:00:01.55 bitrate=   3.7kbits/s speed=0.0422x elapsed=0:00:36.75    \nframe=   96 fps=2.6 q=17.0 size=       1KiB time=00:00:01.58 bitrate=   3.6kbits/s speed=0.0425x elapsed=0:00:37.29    \nframe=   97 fps=2.6 q=3.0 size=       1KiB time=00:00:01.60 bitrate=   3.6kbits/s speed=0.0423x elapsed=0:00:37.81    \nframe=  100 fps=2.6 q=17.0 size=       1KiB time=00:00:01.65 bitrate=   3.5kbits/s speed=0.043x elapsed=0:00:38.33    \nframe=  102 fps=2.6 q=16.0 size=       1KiB time=00:00:01.68 bitrate=   3.4kbits/s speed=0.0433x elapsed=0:00:38.88    \nframe=  103 fps=2.6 q=23.0 size=       1KiB time=00:00:01.70 bitrate=   3.4kbits/s speed=0.0431x elapsed=0:00:39.42    \nframe=  104 fps=2.6 q=17.0 size=       1KiB time=00:00:01.71 bitrate=   3.3kbits/s speed=0.043x elapsed=0:00:39.93    \nframe=  107 fps=2.6 q=23.0 size=       1KiB time=00:00:01.76 bitrate=   3.2kbits/s speed=0.0437x elapsed=0:00:40.46    \nframe=  108 fps=2.6 q=16.0 size=       1KiB time=00:00:01.78 bitrate=   3.2kbits/s speed=0.0435x elapsed=0:00:41.02    \nframe=  112 fps=2.7 q=16.0 size=       1KiB time=00:00:01.85 bitrate=   3.1kbits/s speed=0.0445x elapsed=0:00:41.56    \nframe=  115 fps=2.7 q=25.0 size=       1KiB time=00:00:01.90 bitrate=   3.0kbits/s speed=0.0451x elapsed=0:00:42.10    \nframe=  117 fps=2.7 q=24.0 size=       1KiB time=00:00:01.93 bitrate=   2.9kbits/s speed=0.0454x elapsed=0:00:42.62    \nframe=  119 fps=2.8 q=24.0 size=       1KiB time=00:00:01.96 bitrate=   2.9kbits/s speed=0.0455x elapsed=0:00:43.18    \nframe=  120 fps=2.7 q=18.0 size=       1KiB time=00:00:01.98 bitrate=   2.9kbits/s speed=0.0453x elapsed=0:00:43.76    \nframe=  123 fps=2.8 q=24.0 size=       1KiB time=00:00:02.03 bitrate=   2.8kbits/s speed=0.0459x elapsed=0:00:44.30    \nframe=  125 fps=2.8 q=22.0 size=       1KiB time=00:00:02.05 bitrate=   2.8kbits/s speed=0.0457x elapsed=0:00:44.82    \nframe=  128 fps=2.8 q=16.0 size=       1KiB time=00:00:02.11 bitrate=   2.7kbits/s speed=0.0466x elapsed=0:00:45.37    \nframe=  131 fps=2.9 q=20.0 size=       1KiB time=00:00:02.16 bitrate=   2.6kbits/s speed=0.0472x elapsed=0:00:45.90    \nframe=  132 fps=2.8 q=14.0 size=       1KiB time=00:00:02.18 bitrate=   2.6kbits/s speed=0.047x elapsed=0:00:46.42    \nframe=  134 fps=2.9 q=17.0 size=       1KiB time=00:00:02.21 bitrate=   2.6kbits/s speed=0.0472x elapsed=0:00:46.94    \nframe=  135 fps=2.8 q=19.0 size=       1KiB time=00:00:02.23 bitrate=   2.6kbits/s speed=0.0471x elapsed=0:00:47.46    \nframe=  138 fps=2.9 q=16.0 size=       1KiB time=00:00:02.28 bitrate=   2.5kbits/s speed=0.0476x elapsed=0:00:48.01    \nframe=  139 fps=2.9 q=20.0 size=       1KiB time=00:00:02.30 bitrate=   2.5kbits/s speed=0.0474x elapsed=0:00:48.55    \nframe=  142 fps=2.9 q=17.0 size=       1KiB time=00:00:02.35 bitrate=   2.4kbits/s speed=0.0478x elapsed=0:00:49.12    \nframe=  144 fps=2.9 q=17.0 size=       1KiB time=00:00:02.38 bitrate=   2.4kbits/s speed=0.048x elapsed=0:00:49.65    \nframe=  147 fps=2.9 q=19.0 size=       1KiB time=00:00:02.43 bitrate=   2.3kbits/s speed=0.0485x elapsed=0:00:50.18    \nframe=  148 fps=2.9 q=14.0 size=       1KiB time=00:00:02.45 bitrate=   2.3kbits/s speed=0.0483x elapsed=0:00:50.73    \nframe=  150 fps=2.9 q=19.0 size=       1KiB time=00:00:02.48 bitrate=   2.3kbits/s speed=0.0484x elapsed=0:00:51.27    \nframe=  151 fps=2.9 q=21.0 size=       1KiB time=00:00:02.50 bitrate=   2.3kbits/s speed=0.0482x elapsed=0:00:51.84    \nframe=  154 fps=2.9 q=21.0 size=       1KiB time=00:00:02.53 bitrate=   2.2kbits/s speed=0.0483x elapsed=0:00:52.40    \nframe=  156 fps=2.9 q=21.0 size=       1KiB time=00:00:02.58 bitrate=   2.2kbits/s speed=0.0488x elapsed=0:00:52.96    \nframe=  158 fps=3.0 q=22.0 size=       1KiB time=00:00:02.61 bitrate=   2.2kbits/s speed=0.0489x elapsed=0:00:53.49    \nframe=  161 fps=3.0 q=3.0 size=       1KiB time=00:00:02.66 bitrate=   2.1kbits/s speed=0.0493x elapsed=0:00:54.06    \nframe=  163 fps=3.0 q=22.0 size=       1KiB time=00:00:02.70 bitrate=   2.1kbits/s speed=0.0494x elapsed=0:00:54.60    \nframe=  164 fps=3.0 q=22.0 size=       1KiB time=00:00:02.71 bitrate=   2.1kbits/s speed=0.0493x elapsed=0:00:55.14    \nframe=  166 fps=3.0 q=22.0 size=       1KiB time=00:00:02.75 bitrate=   2.1kbits/s speed=0.0494x elapsed=0:00:55.66    \nframe=  167 fps=3.0 q=22.0 size=       1KiB time=00:00:02.76 bitrate=   2.1kbits/s speed=0.0492x elapsed=0:00:56.18    \nframe=  169 fps=3.0 q=11.0 size=       1KiB time=00:00:02.80 bitrate=   2.0kbits/s speed=0.0494x elapsed=0:00:56.72    \nframe=  170 fps=3.0 q=24.0 size=       1KiB time=00:00:02.81 bitrate=   2.0kbits/s speed=0.0492x elapsed=0:00:57.25    \nframe=  173 fps=3.0 q=22.0 size=       1KiB time=00:00:02.86 bitrate=   2.0kbits/s speed=0.0496x elapsed=0:00:57.78    \nframe=  176 fps=3.0 q=18.0 size=       1KiB time=00:00:02.91 bitrate=   2.0kbits/s speed=0.05x elapsed=0:00:58.33    \nframe=  178 fps=3.0 q=25.0 size=       1KiB time=00:00:02.95 bitrate=   1.9kbits/s speed=0.0501x elapsed=0:00:58.84    \nframe=  179 fps=3.0 q=25.0 size=       1KiB time=00:00:02.96 bitrate=   1.9kbits/s speed=0.05x elapsed=0:00:59.36    \nframe=  182 fps=3.0 q=25.0 size=       1KiB time=00:00:03.01 bitrate=   1.9kbits/s speed=0.0504x elapsed=0:00:59.87    \nframe=  183 fps=3.0 q=25.0 size=       1KiB time=00:00:03.03 bitrate=   1.9kbits/s speed=0.0502x elapsed=0:01:00.42    \nframe=  186 fps=3.0 q=25.0 size=       1KiB time=00:00:03.08 bitrate=   1.8kbits/s speed=0.0506x elapsed=0:01:00.98    \nframe=  187 fps=3.0 q=25.0 size=       1KiB time=00:00:03.10 bitrate=   1.8kbits/s speed=0.0504x elapsed=0:01:01.51    \nframe=  189 fps=3.0 q=22.0 size=       1KiB time=00:00:03.13 bitrate=   1.8kbits/s speed=0.0505x elapsed=0:01:02.05    \nframe=  193 fps=3.1 q=5.0 size=       1KiB time=00:00:03.20 bitrate=   1.8kbits/s speed=0.0511x elapsed=0:01:02.56    \nframe=  195 fps=3.1 q=25.0 size=       1KiB time=00:00:03.23 bitrate=   1.8kbits/s speed=0.0513x elapsed=0:01:03.08    \nframe=  198 fps=3.1 q=25.0 size=       1KiB time=00:00:03.28 bitrate=   1.7kbits/s speed=0.0516x elapsed=0:01:03.62    \nframe=  199 fps=3.1 q=25.0 size=       1KiB time=00:00:03.30 bitrate=   1.7kbits/s speed=0.0514x elapsed=0:01:04.15    \nframe=  202 fps=3.1 q=25.0 size=       1KiB time=00:00:03.35 bitrate=   1.7kbits/s speed=0.0518x elapsed=0:01:04.72    \nframe=  205 fps=3.1 q=22.0 size=       1KiB time=00:00:03.40 bitrate=   1.7kbits/s speed=0.0521x elapsed=0:01:05.24    \nframe=  207 fps=3.1 q=25.0 size=       1KiB time=00:00:03.43 bitrate=   1.7kbits/s speed=0.0522x elapsed=0:01:05.77    \nframe=  211 fps=3.2 q=25.0 size=       1KiB time=00:00:03.50 bitrate=   1.6kbits/s speed=0.0528x elapsed=0:01:06.33    \nframe=  213 fps=3.2 q=24.0 size=       1KiB time=00:00:03.53 bitrate=   1.6kbits/s speed=0.0528x elapsed=0:01:06.87    \nframe=  217 fps=3.2 q=17.0 size=       1KiB time=00:00:03.60 bitrate=   1.6kbits/s speed=0.0534x elapsed=0:01:07.43    \nframe=  217 fps=3.2 q=17.0 size=       1KiB time=00:00:03.60 bitrate=   1.6kbits/s speed=0.053x elapsed=0:01:07.97    \nframe=  221 fps=3.2 q=22.0 size=       1KiB time=00:00:03.66 bitrate=   1.6kbits/s speed=0.0535x elapsed=0:01:08.50    \nframe=  223 fps=3.2 q=25.0 size=       1KiB time=00:00:03.70 bitrate=   1.5kbits/s speed=0.0536x elapsed=0:01:09.05    \nframe=  225 fps=3.2 q=9.0 size=       1KiB time=00:00:03.73 bitrate=   1.5kbits/s speed=0.0536x elapsed=0:01:09.59    \nframe=  229 fps=3.3 q=24.0 size=       1KiB time=00:00:03.80 bitrate=   1.5kbits/s speed=0.0542x elapsed=0:01:10.13    \nframe=  231 fps=3.3 q=25.0 size=       1KiB time=00:00:03.83 bitrate=   1.5kbits/s speed=0.0542x elapsed=0:01:10.67    \nframe=  233 fps=3.3 q=17.0 size=       1KiB time=00:00:03.86 bitrate=   1.5kbits/s speed=0.0543x elapsed=0:01:11.19    \nframe=  235 fps=3.3 q=26.0 size=       1KiB time=00:00:03.90 bitrate=   1.5kbits/s speed=0.0544x elapsed=0:01:11.70    \nframe=  237 fps=3.3 q=23.0 size=       1KiB time=00:00:03.93 bitrate=   1.4kbits/s speed=0.0544x elapsed=0:01:12.25    \nframe=  241 fps=3.3 q=9.0 size=       1KiB time=00:00:04.00 bitrate=   1.4kbits/s speed=0.055x elapsed=0:01:12.78    \nframe=  243 fps=3.3 q=26.0 size=       1KiB time=00:00:04.03 bitrate=   1.4kbits/s speed=0.055x elapsed=0:01:13.29    \nframe=  245 fps=3.3 q=25.0 size=       1KiB time=00:00:04.06 bitrate=   1.4kbits/s speed=0.0551x elapsed=0:01:13.83    \nframe=  247 fps=3.3 q=25.0 size=       1KiB time=00:00:04.10 bitrate=   1.4kbits/s speed=0.0551x elapsed=0:01:14.35    \nframe=  249 fps=3.3 q=18.0 size=       1KiB time=00:00:04.13 bitrate=   1.4kbits/s speed=0.0552x elapsed=0:01:14.87    \nframe=  249 fps=3.3 q=18.0 size=       1KiB time=00:00:04.13 bitrate=   1.4kbits/s speed=0.0548x elapsed=0:01:15.40    \nframe=  253 fps=3.3 q=24.0 size=       1KiB time=00:00:04.20 bitrate=   1.4kbits/s speed=0.0553x elapsed=0:01:15.94    \nframe=  255 fps=3.3 q=25.0 size=       1KiB time=00:00:04.23 bitrate=   1.3kbits/s speed=0.0553x elapsed=0:01:16.48    \nframe=  257 fps=3.3 q=9.0 size=       1KiB time=00:00:04.26 bitrate=   1.3kbits/s speed=0.0554x elapsed=0:01:16.99    \nframe=  261 fps=3.4 q=24.0 size=       1KiB time=00:00:04.33 bitrate=   1.3kbits/s speed=0.0559x elapsed=0:01:17.52    \nframe=  263 fps=3.4 q=26.0 size=       1KiB time=00:00:04.36 bitrate=   1.3kbits/s speed=0.056x elapsed=0:01:18.03    \nframe=  265 fps=3.4 q=17.0 size=       1KiB time=00:00:04.40 bitrate=   1.3kbits/s speed=0.056x elapsed=0:01:18.55    \nframe=  265 fps=3.4 q=17.0 size=       1KiB time=00:00:04.40 bitrate=   1.3kbits/s speed=0.0556x elapsed=0:01:19.08    \nframe=  269 fps=3.4 q=25.0 size=       1KiB time=00:00:04.46 bitrate=   1.3kbits/s speed=0.0561x elapsed=0:01:19.64    \nframe=  271 fps=3.4 q=26.0 size=       1KiB time=00:00:04.50 bitrate=   1.3kbits/s speed=0.0561x elapsed=0:01:20.18    \nframe=  273 fps=3.4 q=8.0 size=       1KiB time=00:00:04.53 bitrate=   1.3kbits/s speed=0.0562x elapsed=0:01:20.70    \nframe=  277 fps=3.4 q=29.0 size=       1KiB time=00:00:04.60 bitrate=   1.2kbits/s speed=0.0566x elapsed=0:01:21.26    \nframe=  279 fps=3.4 q=28.0 size=       1KiB time=00:00:04.63 bitrate=   1.2kbits/s speed=0.0566x elapsed=0:01:21.79    \nframe=  281 fps=3.4 q=23.0 size=       1KiB time=00:00:04.66 bitrate=   1.2kbits/s speed=0.0567x elapsed=0:01:22.33    \nframe=  283 fps=3.4 q=28.0 size=       1KiB time=00:00:04.70 bitrate=   1.2kbits/s speed=0.0567x elapsed=0:01:22.85    \nframe=  285 fps=3.4 q=29.0 size=       1KiB time=00:00:04.73 bitrate=   1.2kbits/s speed=0.0567x elapsed=0:01:23.40    \nframe=  287 fps=3.4 q=28.0 size=       1KiB time=00:00:04.76 bitrate=   1.2kbits/s speed=0.0568x elapsed=0:01:23.93    \n[out#0/matroska @ 000001eb480397c0] video:2222KiB audio:0KiB subtitle:0KiB other streams:0KiB global headers:0KiB muxing overhead: 0.093834%\nframe=  300 fps=3.6 q=31.0 Lsize=    2224KiB time=00:00:04.98 bitrate=3656.1kbits/s speed=0.059x elapsed=0:01:24.39    \n",
  "seconds": 85.18204355239868,
  "probe_out": {}
}